<svg xmlns="http://www.w3.org/2000/svg" viewBox="0 0 493.671 729.916"><defs><style>.cls-1{fill:#303030;}.cls-2{fill:#ef3827;}.cls-3{opacity:0.25;}.cls-4{fill:#231f20;}.cls-5{opacity:0.15;}.cls-6{fill:#fff;}.cls-7{fill:#232323;}.cls-8{fill:#603b17;}.cls-9{fill:#bb2827;}.cls-10{fill:#a8c7e3;}.cls-11{fill:#f89629;}.cls-12{fill:#ee8022;}.cls-13{fill:#333;}.cls-14{fill:#418b41;}.cls-15{fill:#f1593e;}</style></defs><title>5</title><g id="OBJECT"><path class="cls-1" d="M657.1,200.557,606.916,268.74l-22.5,30.513L568.707,320.63l-48.83-1.755-30.109-1.08-21.152-.765c-.18-2.52-.9-14-1.845-29.973-.675-12.827-1.576-28.489-2.521-44.871-2.79-48.739-5.76-103.2-5.76-103.2a168.016,168.016,0,0,1,19.982-10.081,188.1,188.1,0,0,1,29.433-10.216C554.171,106.587,621.408,108.522,657.1,200.557Z" transform="translate(-256.198 -113.432)"/><path class="cls-2" d="M606.9,268.731l-22.473,30.53c-34.646-6.584-78.943-13.026-117.651-12.218-.695-12.8-1.589-28.48-2.527-44.836C502.2,245.312,558.587,252.516,606.9,268.731Z" transform="translate(-256.198 -113.432)"/><g class="cls-3"><path class="cls-4" d="M507.905,118.693a181.493,181.493,0,0,0-19.665,6.257c.311-.081.6-.177.913-.256,46.265-12.107,113.5-10.172,149.191,81.863l-50.18,68.183-11.511,15.608-10.977,14.913-.018,0-10.925,14.87,13.974.5,15.7-21.373.018,0,10.978-14.912,11.51-15.608L657.1,200.557C621.408,108.522,554.171,106.587,507.905,118.693Z" transform="translate(-256.198 -113.432)"/></g><g class="cls-5"><path class="cls-6" d="M519.877,318.875l-30.109-1.08-11.3-188.886a188.1,188.1,0,0,1,29.433-10.216Z" transform="translate(-256.198 -113.432)"/></g><ellipse class="cls-1" cx="516.066" cy="356.076" rx="88.482" ry="137.828" transform="translate(-169.225 699.803) rotate(-81.419)"/><path class="cls-7" d="M616.779,380.554c-5.585,37.011-56.847,59.961-114.5,51.262s-99.859-45.755-94.274-82.765,56.848-59.961,114.5-51.262S622.364,343.544,616.779,380.554Z" transform="translate(-256.198 -113.432)"/><path class="cls-8" d="M612.7,590.237q-1.979-5.855-3.958-11.708c94.685-47.4,115.861-39.705,108.308-154.848q6.12-.468,12.24-.934C737.162,542.818,712.982,542,612.7,590.237Z" transform="translate(-256.198 -113.432)"/><path class="cls-2" d="M693.429,408.97c-1.313-1.186-2.29-1.9-2.7-3.4-1.121-4.092,2.2-7.544,6.339-7.66s7.152,2.8,9.573,5.847c-2.5-6.622-5.271-13.167-3.454-20.326,1.224-4.823,4.392-8.413,8-11.679,4.9-4.433,10.688-7.92,17.432-6.945,4.568.661,7.895,3.459,11.177,6.525,4.364,4.074,8.383,7.715,9.728,14.092s-1.573,13.078-4.486,18.98c-1.591,3.224-3.411,6.566-5.178,9.739-1.071,1.922-2.285,3.934-4.349,4.878s-4.36.507-6.452.227c-6.914-.923-12.592,4.04-19.37,3S698.136,413.223,693.429,408.97Z" transform="translate(-256.198 -113.432)"/><g class="cls-5"><path class="cls-4" d="M739.773,371.308c-3.361-3.13-6.336-5.639-11.257-6.561s-10.219,1.562-14.36,4.464c2.586-.7,5.218-1.5,7.976-.835a23.753,23.753,0,0,1,11.139,6.583c4.319,4.2,8.376,7.7,9.721,14.114s-1.617,13.081-4.476,18.981c-1.562,3.223-3.584,6.629-5.105,9.705-.287.582-1.361,1.579-.946,1.731a4.354,4.354,0,0,0,3.223-.536c1.417-.71,3.26-2.951,4.218-4.833,1.583-3.109,3.59-6.507,5.143-9.727,2.843-5.895,5.861-12.581,4.47-18.98S744.242,375.468,739.773,371.308Z" transform="translate(-256.198 -113.432)"/></g><path class="cls-9" d="M715.438,416.136c5.81-1.487,11.116-1.69,16.873-2.148,2.5-.2,4.952-.219,6.856,1.577s1.28,5.106,1.039,7.162a7.417,7.417,0,0,1-2.22,4.786,4.9,4.9,0,0,1-2.845.99,164.513,164.513,0,0,0-16.149,4.1c-4.757,1.51-8.99,2.84-13.058.522s-6.126-7.243-3.361-11.015S711.345,417.183,715.438,416.136Z" transform="translate(-256.198 -113.432)"/><path class="cls-8" d="M393.372,629.242q1.978-5.854,3.958-11.708c-94.685-47.4-115.861-39.706-108.309-154.848q-6.118-.469-12.24-.934C268.9,581.822,293.085,581.005,393.372,629.242Z" transform="translate(-256.198 -113.432)"/><path class="cls-2" d="M312.638,447.975c1.313-1.186,2.29-1.9,2.7-3.405,1.122-4.092-2.2-7.543-6.338-7.66s-7.152,2.8-9.573,5.847c2.5-6.621,5.271-13.167,3.454-20.326-1.224-4.823-4.393-8.413-8-11.679-4.9-4.433-10.688-7.92-17.433-6.944-4.567.661-7.894,3.459-11.176,6.524-4.364,4.074-8.384,7.715-9.728,14.092s1.573,13.078,4.486,18.98c1.591,3.225,3.41,6.566,5.179,9.74,1.07,1.921,2.285,3.934,4.348,4.878s4.36.506,6.452.226c6.914-.923,12.592,4.04,19.37,3S307.931,452.228,312.638,447.975Z" transform="translate(-256.198 -113.432)"/><g class="cls-5"><path class="cls-4" d="M266.294,410.312c3.361-3.13,6.336-5.638,11.257-6.561s10.218,1.563,14.36,4.465c-2.586-.7-5.218-1.5-7.976-.836a23.753,23.753,0,0,0-11.139,6.583c-4.319,4.2-8.376,7.7-9.721,14.114s1.616,13.082,4.476,18.982c1.561,3.222,3.584,6.628,5.1,9.7.288.581,1.362,1.579.947,1.73a4.357,4.357,0,0,1-3.224-.536c-1.416-.71-3.259-2.95-4.217-4.833-1.583-3.108-3.591-6.507-5.143-9.727-2.843-5.894-5.861-12.58-4.47-18.98S261.825,414.472,266.294,410.312Z" transform="translate(-256.198 -113.432)"/></g><path class="cls-9" d="M290.629,455.14c-5.81-1.486-11.115-1.69-16.873-2.147-2.5-.2-4.952-.22-6.856,1.577s-1.28,5.105-1.039,7.161a7.415,7.415,0,0,0,2.22,4.787,4.906,4.906,0,0,0,2.845.99,163.949,163.949,0,0,1,16.149,4.1c4.756,1.509,8.99,2.84,13.058.522s6.126-7.243,3.361-11.015S294.722,456.187,290.629,455.14Z" transform="translate(-256.198 -113.432)"/><circle class="cls-6" cx="508.124" cy="670.226" r="173.122" transform="translate(-581.293 442.171) rotate(-45)"/><g class="cls-5"><path class="cls-10" d="M507.978,497.105a175.028,175.028,0,0,0-18.716,1.022,173.113,173.113,0,0,1,0,344.2,175.028,175.028,0,0,0,18.716,1.022,173.121,173.121,0,1,0,0-346.242Z" transform="translate(-256.198 -113.432)"/></g><circle class="cls-6" cx="248.125" cy="311.441" r="118.436"/><g class="cls-5"><path class="cls-10" d="M504.223,306.437a119.514,119.514,0,0,0-12.8.7,118.429,118.429,0,0,1,0,235.472,118.433,118.433,0,1,0,12.8-236.172Z" transform="translate(-256.198 -113.432)"/></g><path class="cls-11" d="M410.963,412.266l84.559,44.615a3.853,3.853,0,0,0,5.536-2.474l9.252-37a3.85,3.85,0,0,0-3.721-4.785Z" transform="translate(-256.198 -113.432)"/><path class="cls-12" d="M410.982,412.279l68.193,35.98a18.375,18.375,0,0,0,22.947-4.8C475.28,441.231,410.982,412.279,410.982,412.279Z" transform="translate(-256.198 -113.432)"/><path class="cls-4" d="M478.377,646.639a14.329,14.329,0,1,1-14.329-14.33A14.329,14.329,0,0,1,478.377,646.639Z" transform="translate(-256.198 -113.432)"/><circle class="cls-13" cx="207.85" cy="533.207" r="11.095"/><path class="cls-4" d="M470.548,694.878a14.329,14.329,0,1,1-14.329-14.329A14.329,14.329,0,0,1,470.548,694.878Z" transform="translate(-256.198 -113.432)"/><circle class="cls-13" cx="200.021" cy="581.446" r="11.095"/><path class="cls-4" d="M461.688,743.4a14.33,14.33,0,1,1-14.329-14.329A14.329,14.329,0,0,1,461.688,743.4Z" transform="translate(-256.198 -113.432)"/><circle class="cls-13" cx="191.161" cy="629.967" r="11.095"/><path class="cls-2" d="M723.382,575.116c5.424,6.5,3.878,16.188,1.772,24.376-2.3,8.972-4.94,17.884-7.851,26.669-1.735,5.239-3.749,10.659-7.887,14.32-8.147,7.182-20.775,4.65-30.938.874-.284-.087-.515-.2-.8-.289-15.339-5.715-29.891-13.275-44.136-21.407-2-1.145-4.045-2.3-6.034-3.489a216.551,216.551,0,0,1-20.34-13.015,104.274,104.274,0,0,1-10.432-8.7,92.4,92.4,0,0,1-20.326-28.723c-5.351-11.668-3.97-18.791,2.35-30.3,1.207-2.205,3.013-4.627,5.513-4.527,3.145.163,4.58,3.887,5.98,6.712,4.487,8.83,15.111,12.259,24.642,14.909,3.649.983,7.286,2.007,10.947,2.951,8.813,2.386,17.691,4.7,26.6,6.63a245.71,245.71,0,0,0,39.388,5.884c2.515.193,5.068.264,7.58.323C707.967,568.49,717.849,568.54,723.382,575.116Z" transform="translate(-256.198 -113.432)"/><path class="cls-14" d="M590.254,537.616c4.487,8.83,15.111,12.259,24.642,14.909,3.649.983,7.286,2.007,10.947,2.951-4.276,15.423-12.158,33.784-18.674,47.679a104.274,104.274,0,0,1-10.432-8.7,92.4,92.4,0,0,1-20.326-28.723c-5.351-11.668-3.97-18.791,2.35-30.3,1.207-2.205,3.013-4.627,5.513-4.527C587.419,531.067,588.854,534.791,590.254,537.616Z" transform="translate(-256.198 -113.432)"/><path class="cls-14" d="M691.83,567.99c-4.325,19.937-10.7,50.476-14.151,73.076-15.339-5.715-29.891-13.275-44.136-21.407,5.707-18.937,12.507-40.291,18.9-57.553A245.71,245.71,0,0,0,691.83,567.99Z" transform="translate(-256.198 -113.432)"/><path class="cls-2" d="M609.512,561.032a10.834,10.834,0,0,1-4.141,4.9c-4.365,3.06-10.846,3.736-16.472,3.871-2.115.044-4.185.09-6.3.09-.5.044-1.036.044-1.531.044q-31.8.607-63.592.135-16-.2-32-.674-31.594-.947-63.277-2.881c-3.106-.18-6.211-.36-9.316-.585-8.6-.585-18.992-2.43-22.053-10.486-1.35-3.421-.99-7.246-.449-10.891,1.215-9.091,2.3-19.622,5.67-28.218,3.51-9,4.906-8.236,14.537-7.516,6.66.5,13.366.99,20.072,1.395,12.736.765,25.518,1.305,38.389,1.395,1.035,0,2.07,0,3.15.045,18.047.045,36.139-.45,54.186-1.26,12.6-.54,25.2-1.26,37.849-2.07.406,0,.855-.045,1.261-.045.45-.045.9-.045,1.35-.09,6.435-.316,12.871-.765,19.307-1.125,3.061-.18,6.391-.315,8.911,1.44,2.115,1.44,3.285,3.87,4.32,6.211a163.356,163.356,0,0,1,10.4,35.239C610.457,553.651,610.952,557.611,609.512,561.032Z" transform="translate(-256.198 -113.432)"/><path class="cls-14" d="M472.19,511.656l13.3,57.727q-31.635-.9-63.271-2.878l8.422-56.288Z" transform="translate(-256.198 -113.432)"/><path class="cls-14" d="M581.046,569.944q-31.793.579-63.587.14l8.913-59.692,40.462-2.175Z" transform="translate(-256.198 -113.432)"/><path class="cls-15" d="M466.812,511.226" transform="translate(-256.198 -113.432)"/><g class="cls-5"><path class="cls-4" d="M605.371,565.937c-4.365,3.06-10.846,3.736-16.472,3.871-2.115.044-4.185.09-6.3.09-9.9-17.687-27.5-50.091-26.643-55.717l8.28-5.85.991-.675s.09.224.27.63C568.242,513.776,588.494,554.056,605.371,565.937Z" transform="translate(-256.198 -113.432)"/></g><path class="cls-2" d="M657.015,621.7c.922,8.413-5.728,15.63-12.013,21.285-6.881,6.2-14.011,12.163-21.3,17.87-4.345,3.4-9.021,6.8-14.494,7.563-10.759,1.476-19.877-7.622-26.253-16.391-.188-.229-.317-.453-.5-.683-9.615-13.248-17.553-27.6-24.919-42.253-1.034-2.061-2.095-4.156-3.1-6.244a216.648,216.648,0,0,1-9.74-22.1,104.24,104.24,0,0,1-3.878-13.016,92.4,92.4,0,0,1-1.037-35.173c2-12.679,7.091-17.848,18.726-23.942,2.226-1.169,5.07-2.186,7.1-.721,2.53,1.877,1.664,5.773,1.267,8.9-1.148,9.839,5.8,18.573,12.277,26.054,2.5,2.839,4.957,5.7,7.486,8.516,6.02,6.864,12.132,13.706,18.486,20.241a245.751,245.751,0,0,0,29.553,26.7c1.989,1.553,4.076,3.024,6.136,4.463C647.84,607.653,656.044,613.163,657.015,621.7Z" transform="translate(-256.198 -113.432)"/><path class="cls-14" d="M566.874,516.8c-1.148,9.839,5.8,18.573,12.277,26.054,2.5,2.839,4.957,5.7,7.486,8.516-12.1,10.481-28.822,21.413-41.938,29.382a104.24,104.24,0,0,1-3.878-13.016,92.4,92.4,0,0,1-1.037-35.173c2-12.679,7.091-17.848,18.726-23.942,2.226-1.169,5.07-2.186,7.1-.721C568.137,509.778,567.271,513.674,566.874,516.8Z" transform="translate(-256.198 -113.432)"/><path class="cls-14" d="M634.676,598.308c-14.635,14.213-36.84,36.125-52.222,53.038-9.615-13.248-17.553-27.6-24.919-42.253,15.231-12.616,32.712-26.639,47.588-37.481A245.751,245.751,0,0,0,634.676,598.308Z" transform="translate(-256.198 -113.432)"/><path class="cls-4" d="M512.129,464.068l-.247,7.873c-.018.584-.083,1.213-.146,1.8a22.95,22.95,0,0,1-23.466,20.337,22.912,22.912,0,0,1-22.18-23.568l.246-7.872Z" transform="translate(-256.198 -113.432)"/><path class="cls-2" d="M511.736,473.737a22.95,22.95,0,0,1-23.466,20.337,22.878,22.878,0,0,1-14.542-5.814c2.634-9.327,14.958-16.1,29.578-15.643A39.69,39.69,0,0,1,511.736,473.737Z" transform="translate(-256.198 -113.432)"/><path class="cls-4" d="M469.282,392.737a2.08,2.08,0,0,1-2.08-2.08,15.249,15.249,0,1,0-30.5,0,2.08,2.08,0,1,1-4.159,0,19.408,19.408,0,1,1,38.815,0A2.079,2.079,0,0,1,469.282,392.737Z" transform="translate(-256.198 -113.432)"/><path class="cls-4" d="M540.727,394.987a2.079,2.079,0,0,1-2.079-2.08,15.249,15.249,0,1,0-30.5,0,2.08,2.08,0,1,1-4.159,0,19.408,19.408,0,1,1,38.816,0A2.079,2.079,0,0,1,540.727,394.987Z" transform="translate(-256.198 -113.432)"/></g></svg>