<svg xmlns="http://www.w3.org/2000/svg" viewBox="0 0 662.434 642.07"><defs><style>.cls-1{fill:#603b17;}.cls-2{fill:#ef3827;}.cls-3{opacity:0.1;}.cls-4{fill:#1d1d1b;}.cls-5{fill:#fff;}.cls-6{opacity:0.15;}.cls-7{fill:#a8c7e3;}.cls-8{fill:#231f20;}.cls-9{fill:#f89629;}.cls-10{fill:#ee8022;}.cls-11{fill:#333;}.cls-12{fill:#bb2827;}.cls-13{fill:#f1593e;}.cls-14{fill:#e6e7e7;}.cls-15{fill:#eaeaea;}</style></defs><title>10</title><g id="OBJECT"><rect class="cls-1" x="613.128" y="499.386" width="197.406" height="10.528" transform="matrix(0.853, -0.521, 0.521, 0.853, -330.525, 287.826)"/><rect class="cls-1" x="668.04" y="451.428" width="96.941" height="10.527" transform="translate(-11.002 942.109) rotate(-81.668)"/><rect class="cls-1" x="788.449" y="444.566" width="10.528" height="80.397" transform="translate(26.807 1042.144) rotate(-81.634)"/><rect class="cls-1" x="288.97" y="403.609" width="10.528" height="197.405" transform="translate(-459.624 334.087) rotate(-58.57)"/><rect class="cls-1" x="284.292" y="405.881" width="10.527" height="96.94" transform="translate(-234.549 -110.644) rotate(-8.325)"/><rect class="cls-1" x="172.153" y="477.162" width="80.398" height="10.528" transform="translate(-239.64 -121.392) rotate(-8.352)"/><path class="cls-2" d="M440.445,225.59a100.507,100.507,0,0,1,6.859-20.218c29.043-60.586,154.827-60.916,206.12-17.368,30.45,25.852,34.655,63.422,37.352,98.106a39.6,39.6,0,0,0-13.016,1.709c-2.268-12.425-4.606-25.033-11.232-36.516a55.34,55.34,0,0,0-33.786-25.946c-15.574-4.049-35.136-.18-43.314,10.705-4.063,5.408-5.035,11.8-5.925,18l-3.463,24.116c-.321,2.235-.714,4.6-2.573,6.35-2.778,2.606-7.754,2.919-12.157,3.015q-31.365.684-62.749.575c-14.633-.05-47.283,4.1-60.094-.924-14.692-5.768-10.8-22.978-8.234-32.9C436.673,244.863,438.151,235.155,440.445,225.59Z" transform="translate(-171.817 -157.355)"/><g class="cls-3"><path class="cls-4" d="M679.53,265.715c-2.055-14.863-4-30.5-15.091-42.822-17.265-19.171-56.494-24-80.8-9.957-9.9,5.722-17.018,13.722-24.4,21.342-17.43,17.993-39.12,39.412-64.461,54.065,2.909-.139,5.572-.234,7.786-.226q31.379.108,62.749-.575c4.4-.1,9.379-.409,12.157-3.016,1.859-1.744,2.252-4.114,2.573-6.349l3.463-24.116c.89-6.2,1.862-12.591,5.925-18,8.178-10.885,27.74-14.754,43.314-10.705A55.34,55.34,0,0,1,666.528,251.3c6.626,11.483,8.964,24.091,11.232,36.516a38.987,38.987,0,0,1,8.923-1.618C682.286,280.3,680.486,272.634,679.53,265.715Z" transform="translate(-171.817 -157.355)"/></g><circle class="cls-5" cx="507.127" cy="626.304" r="173.122" transform="translate(-466.146 384.678) rotate(-45)"/><g class="cls-6"><path class="cls-7" d="M506.981,453.182a174.753,174.753,0,0,0-18.716,1.023,173.112,173.112,0,0,1,0,344.2,173.118,173.118,0,1,0,18.716-345.22Z" transform="translate(-171.817 -157.355)"/></g><circle class="cls-5" cx="503.325" cy="380.95" r="118.436" transform="translate(-125.834 658.679) rotate(-80.692)"/><g class="cls-6"><path class="cls-7" d="M503.225,262.514a119.543,119.543,0,0,0-12.8.7,118.43,118.43,0,0,1,0,235.473,119.8,119.8,0,0,0,12.8.7,118.436,118.436,0,1,0,0-236.872Z" transform="translate(-171.817 -157.355)"/></g><circle class="cls-8" cx="286.474" cy="203.71" r="11.112"/><path class="cls-5" d="M456.483,355.681a1.911,1.911,0,1,1-1.911-1.911A1.911,1.911,0,0,1,456.483,355.681Z" transform="translate(-171.817 -157.355)"/><circle class="cls-8" cx="356.658" cy="203.71" r="11.112"/><path class="cls-5" d="M526.667,355.681a1.911,1.911,0,1,1-1.911-1.911A1.91,1.91,0,0,1,526.667,355.681Z" transform="translate(-171.817 -157.355)"/><path class="cls-9" d="M422.826,437.535l89.043-34.844a3.852,3.852,0,0,0,1.745-5.806l-21.972-31.176a3.852,3.852,0,0,0-6.055-.309Z" transform="translate(-171.817 -157.355)"/><path class="cls-10" d="M422.848,437.53l71.8-28.1a18.375,18.375,0,0,0,11.363-20.506C486.785,407.787,422.848,437.53,422.848,437.53Z" transform="translate(-171.817 -157.355)"/><path class="cls-8" d="M507.069,616.955a14.329,14.329,0,1,1-14.329-14.33A14.329,14.329,0,0,1,507.069,616.955Z" transform="translate(-171.817 -157.355)"/><circle class="cls-11" cx="320.924" cy="459.6" r="11.095"/><path class="cls-8" d="M507.362,664.622a14.33,14.33,0,1,1-14.329-14.33A14.33,14.33,0,0,1,507.362,664.622Z" transform="translate(-171.817 -157.355)"/><circle class="cls-11" cx="321.216" cy="507.267" r="11.095"/><path class="cls-8" d="M507.654,711.118a14.329,14.329,0,1,1-14.329-14.329A14.329,14.329,0,0,1,507.654,711.118Z" transform="translate(-171.817 -157.355)"/><circle class="cls-11" cx="321.508" cy="553.764" r="11.095"/><path class="cls-2" d="M614.509,505.106c-3.088,7.3-12.7,8.6-20.6,8.774-2.632.07-5.229.105-7.861.14q-31.792.579-63.587.14c-10.668-.14-21.3-.35-31.969-.7q-31.635-.9-63.271-2.878c-3.123-.176-6.211-.351-9.335-.562-8.6-.6-18.985-2.421-22.072-10.492-1.334-3.439-.948-7.264-.422-10.879,1.229-9.089,2.281-19.651,5.65-28.214,3.545-9.019,4.913-8.246,14.563-7.51,6.668.492,13.37.948,20.038,1.369,12.774.772,25.547,1.3,38.391,1.4,1.053,0,2.1,0,3.158.035,18.073.035,36.145-.456,54.183-1.263,13.475-.562,26.985-1.334,40.461-2.176,6.457-.351,12.879-.772,19.336-1.158,3.053-.176,6.387-.281,8.913,1.438,2.106,1.439,3.264,3.9,4.281,6.247a163.986,163.986,0,0,1,10.423,35.233C615.457,497.737,615.948,501.668,614.509,505.106Z" transform="translate(-171.817 -157.355)"/><path class="cls-12" d="M477.193,455.732l13.3,57.727q-31.635-.9-63.271-2.878l8.422-56.288Z" transform="translate(-171.817 -157.355)"/><path class="cls-12" d="M586.049,514.02q-31.792.579-63.587.14l8.914-59.691,40.461-2.176Z" transform="translate(-171.817 -157.355)"/><path class="cls-13" d="M471.816,455.3" transform="translate(-171.817 -157.355)"/><g class="cls-6"><path class="cls-8" d="M469.124,455.453s-12,43.275-2.353,57.093l-23.906-1.316s9.211-51.98,14.913-56.148Z" transform="translate(-171.817 -157.355)"/></g><path class="cls-2" d="M468.975,597.547c-4.626,7.088-14.345,8.446-22.791,8.828-9.252.424-18.546.509-27.8.3-5.517-.128-11.289-.467-16-3.353-9.253-5.687-10.526-18.5-9.889-29.328,0-.3.042-.551.042-.848.976-16.34,3.947-32.468,7.555-48.468.509-2.25,1.019-4.542,1.57-6.791a216.777,216.777,0,0,1,6.494-23.258,104.133,104.133,0,0,1,5.262-12.52,92.419,92.419,0,0,1,21.518-27.842c9.592-8.531,16.807-9.3,29.667-6.62,2.462.509,5.305,1.527,5.942,3.946.764,3.056-2.377,5.518-4.669,7.682-7.13,6.876-7.3,18.038-7.045,27.927.127,3.777.212,7.554.382,11.332.3,9.125.679,18.292,1.443,27.375a245.478,245.478,0,0,0,5.9,39.385c.551,2.462,1.23,4.923,1.909,7.343C470.8,580.867,473.644,590.332,468.975,597.547Z" transform="translate(-171.817 -157.355)"/><path class="cls-12" d="M465.877,459.272c-7.13,6.876-7.3,18.038-7.045,27.927.127,3.777.212,7.554.382,11.332-16,.424-35.863-1.74-51.057-3.905a104.133,104.133,0,0,1,5.262-12.52,92.419,92.419,0,0,1,21.518-27.842c9.592-8.531,16.807-9.3,29.667-6.62,2.462.509,5.305,1.527,5.942,3.946C471.31,454.646,468.169,457.108,465.877,459.272Z" transform="translate(-171.817 -157.355)"/><path class="cls-12" d="M466.557,565.291c-20.33,1.7-51.4,4.542-74.019,7.852.976-16.34,3.947-32.468,7.555-48.468,19.778-.085,42.187.169,60.564,1.231A245.478,245.478,0,0,0,466.557,565.291Z" transform="translate(-171.817 -157.355)"/><path class="cls-14" d="M593.368,307.549a777.76,777.76,0,0,0-180.671,0,20.265,20.265,0,0,1-20.2-20.2v-.531a20.265,20.265,0,0,1,20.2-20.2,998.677,998.677,0,0,1,180.671,0,20.264,20.264,0,0,1,20.2,20.2v.531A20.264,20.264,0,0,1,593.368,307.549Z" transform="translate(-171.817 -157.355)"/><path class="cls-15" d="M712.276,289.186A26.389,26.389,0,1,1,678.847,272.6,26.389,26.389,0,0,1,712.276,289.186Z" transform="translate(-171.817 -157.355)"/><g class="cls-3"><path class="cls-4" d="M680.9,272.019a26.375,26.375,0,0,1,7.335,51.354c-.682.229-1.368.406-2.055.578a26.37,26.37,0,1,0-5.28-51.932Z" transform="translate(-171.817 -157.355)"/></g></g></svg>